#!OML:ASF I:\Actors\actors\Patient Classification 2\Patient 1\Session 1\actor1.ASF
:FULLY-SPECIFIED
:DEGREES
690
root -0.629507 18.7611 5.84348 3.61701 -1.56736 -5.03342
lowerback 8.20456 0.796071 0.583545
upperback 1.60613 1.15012 1.30106
thorax -2.95204 0.5701 0.893877
lowerneck -12.2908 -2.75064 -0.95277
upperneck 34.1065 -4.50795 1.96399
head 13.6517 -1.83346 0.268366
rclavicle -1.90833e-014 1.98785e-015
rhumerus -29.9463 42.2783 -82.3018
rradius 111.298
rwrist 20.2813
rhand -18.0119 -30.1488
rfingers 7.12502
rthumb 8.25889 -419.967
lclavicle -1.90833e-014 1.98785e-015
lhumerus -15.675 -46.0551 74.0778
lradius 102.4
lwrist -8.50229
lhand -10.8982 -32.2808
lfingers 7.12502
lthumb 15.1185 -2.85297
rfemur 0 0 0
rtibia 0
rfoot 0 0
rtoes 0
lfemur -7.9236 -4.1273 -8.74372
ltibia 23.9723
lfoot -22.2331 12.308
ltoes -55.9637
691
root -0.631018 18.7615 5.84322 3.61787 -1.56594 -5.03031
lowerback 8.19183 0.804524 0.522135
upperback 1.63877 1.15628 1.32784
thorax -2.91306 0.573763 0.955813
lowerneck -12.3403 -2.74479 -1.03348
upperneck 34.0665 -4.51343 2.07287
head 13.651 -1.83152 0.324118
rclavicle 1.39149e-014 -1.98785e-015
rhumerus -29.9906 42.5195 -82.425
rradius 110.869
rwrist 20.2533
rhand -17.9129 -30.2051
rfingers 7.12502
rthumb 8.35439 -420.02
lclavicle 1.39149e-014 -1.98785e-015
lhumerus -15.6576 -46.0966 74.1673
lradius 102.026
lwrist -8.27602
lhand -10.6614 -31.997
lfingers 7.12502
lthumb 15.3466 -2.58652
rfemur 0 0 0
rtibia 0
rfoot 0 0
rtoes 0
lfemur -7.92714 -4.13714 -8.74145
ltibia 23.9755
lfoot -22.2404 12.2878
ltoes -55.941
692
root -0.634446 18.761 5.84222 3.61957 -1.58191 -5.01729
lowerback 8.18601 0.824642 0.420701
upperback 1.65382 1.17488 1.35361
thorax -2.8971 0.583908 1.03768
lowerneck -12.6032 -2.81861 -1.48859
upperneck 34.3658 -4.67077 2.53259
head 13.8752 -1.89015 0.558658
rclavicle 9.24349e-015 2.22639e-014
rhumerus -30.0017 42.7235 -82.522
rradius 110.329
rwrist 19.9287
rhand -17.621 -30.256
rfingers 7.12502
rthumb 8.63613 -420.059
lclavicle 9.24349e-015 2.22639e-014
lhumerus -15.6113 -46.1622 74.2219
lradius 101.568
lwrist -8.06261
lhand -10.2985 -31.746
lfingers 7.12502
lthumb 15.6962 -2.36263
rfemur 0 0 0
rtibia 0
rfoot 0 0
rtoes 0
lfemur -7.93075 -4.1174 -8.74222
ltibia 23.9761
lfoot -22.2443 12.277
ltoes -55.958
693
root -0.636625 18.7601 5.84126 3.60863 -1.61312 -5.02912
lowerback 8.19599 0.847628 0.389468
upperback 1.65226 1.20302 1.35762
thorax -2.90543 0.598159 1.05624
lowerneck -12.8194 -2.9019 -1.83844
upperneck 34.6379 -4.83068 2.87943
head 14.074 -1.95228 0.731732
rclavicle -7.10655e-015 2.42517e-014
rhumerus -29.992 42.8972 -82.6459
rradius 109.704
rwrist 19.447
rhand -17.1515 -30.2303
rfingers 7.12502
rthumb 9.08911 -420.015
lclavicle -7.10655e-015 2.42517e-014
lhumerus -15.4935 -46.3055 74.1895
lradius 101.016
lwrist -7.74898
lhand -10.0159 -31.5103
lfingers 7.12502
lthumb 15.9683 -2.14847
rfemur 0 0 0
rtibia 0
rfoot 0 0
rtoes 0
lfemur -7.9075 -4.09865 -8.72764
ltibia 23.9703
lfoot -22.2486 12.3181
ltoes -56.0583
694
root -0.637102 18.7597 5.84085 3.58174 -1.66327 -5.04757
lowerback 8.20784 0.880219 0.414144
upperback 1.65646 1.24795 1.34128
thorax -2.90752 0.620216 1.02059
lowerneck -12.9194 -2.94549 -1.91571
upperneck 34.7417 -4.91468 2.98303
head 14.1528 -1.982 0.772755
rclavicle -1.77415e-014 -6.36111e-015
rhumerus -29.9265 43.0545 -82.7437
rradius 109.052
rwrist 19.0844
rhand -16.8777 -30.4007
rfingers 7.12502
rthumb 9.35332 -420.173
lclavicle -1.77415e-014 -6.36111e-015
lhumerus -15.3241 -46.4909 74.0834
lradius 100.487
lwrist -7.42889
lhand -9.73352 -31.3721
lfingers 7.12502
lthumb 16.2402 -2.03234
rfemur 0 0 0
rtibia 0
rfoot 0 0
rtoes 0
lfemur -7.85715 -4.08649 -8.71867
ltibia 23.9636
lfoot -22.2461 12.3831
ltoes -56.101
695
root -0.637901 18.7596 5.84025 3.56839 -1.69712 -5.0395
lowerback 8.20003 0.907584 0.3872
upperback 1.67457 1.28158 1.33997
thorax -2.88553 0.637114 1.03108
lowerneck -13.0247 -2.95814 -1.91393
upperneck 34.7894 -4.93099 2.97161
head 14.1985 -1.98804 0.763821
rclavicle 1.17283e-014 -2.38542e-014
rhumerus -29.8249 43.2001 -82.724
rradius 108.563
rwrist 18.9218
rhand -16.6951 -30.6996
rfingers 7.12502
rthumb 9.52951 -420.464
lclavicle 1.17283e-014 -2.38542e-014
lhumerus -15.1445 -46.6366 73.9588
lradius 100.094
lwrist -7.241
lhand -9.5633 -31.3161
lfingers 7.12502
lthumb 16.4041 -1.98972
rfemur 0 0 0
rtibia 0
rfoot 0 0
rtoes 0
lfemur -7.83369 -4.10329 -8.73095
ltibia 23.9586
lfoot -22.2491 12.4194
ltoes -56.0156
696
root -0.638566 18.7599 5.84014 3.55864 -1.70197 -5.03228
lowerback 8.20402 0.919636 0.331045
upperback 1.69724 1.29332 1.36536
thorax -2.86633 0.643425 1.08777
lowerneck -13.12 -2.96102 -1.94447
upperneck 34.7996 -4.91942 2.95377
head 14.2246 -1.98777 0.762374
rclavicle -1.04362e-014 1.03368e-014
rhumerus -29.7285 43.3227 -82.6096
rradius 108.356
rwrist 18.8417
rhand -16.599 -30.9037
rfingers 7.12502
rthumb 9.62225 -420.664
lclavicle -1.04362e-014 1.03368e-014
lhumerus -15.0311 -46.7207 73.8469
lradius 99.9538
lwrist -7.10775
lhand -9.56344 -31.2534
lfingers 7.12502
lthumb 16.404 -1.92707
rfemur 0 0 0
rtibia 0
rfoot 0 0
rtoes 0
lfemur -7.81721 -4.12701 -8.73842
ltibia 23.9485
lfoot -22.2605 12.4245
ltoes -55.9869
697
root -0.639046 18.7601 5.84068 3.54377 -1.70338 -5.03551
lowerback 8.23055 0.929119 0.301674
upperback 1.71722 1.30396 1.38278
thorax -2.86166 0.648931 1.12092
lowerneck -13.1334 -2.95815 -1.96278
upperneck 34.7541 -4.91734 2.98178
head 14.2084 -1.98572 0.776895
rclavicle -8.54774e-015 5.96354e-015
rhumerus -29.7014 43.3731 -82.5177
rradius 108.432
rwrist 18.7643
rhand -16.7857 -30.9862
rfingers 7.12502
rthumb 9.44207 -420.755
lclavicle -8.54774e-015 5.96354e-015
lhumerus -15.0627 -46.7444 73.7589
lradius 100.186
lwrist -7.04842
lhand -9.63954 -31.1792
lfingers 7.12502
lthumb 16.3307 -1.84683
rfemur 0 0 0
rtibia 0
rfoot 0 0
rtoes 0
lfemur -7.78709 -4.11716 -8.73473
ltibia 23.9282
lfoot -22.2787 12.405
ltoes -56.0525
698
root -0.639722 18.76 5.84147 3.55577 -1.70413 -5.01725
lowerback 8.2174 0.936251 0.254174
upperback 1.73876 1.30911 1.38875
thorax -2.83337 0.651809 1.15363
lowerneck -13.0425 -2.92741 -1.89405
upperneck 34.6029 -4.87675 2.96027
head 14.1146 -1.9651 0.763373
rclavicle -1.77912e-014 1.82882e-014
rhumerus -29.7472 43.3074 -82.4393
rradius 108.77
rwrist 18.7395
rhand -17.1652 -30.9752
rfingers 7.12502
rthumb 9.0759 -420.76
lclavicle -1.77912e-014 1.82882e-014
lhumerus -15.1497 -46.6843 73.7019
lradius 100.669
lwrist -7.06218
lhand -9.83632 -31.2078
lfingers 7.12502
lthumb 16.1413 -1.85997
rfemur 0 0 0
rtibia 0
rfoot 0 0
rtoes 0
lfemur -7.79058 -4.07476 -8.74953
ltibia 23.9138
lfoot -22.2895 12.3785
ltoes -56.1468
